<mxfile host="app.diagrams.net" agent="Mozilla/5.0 (Macintosh; Intel Mac OS X 10_15_7) AppleWebKit/537.36 (KHTML, like Gecko) Chrome/130.0.0.0 Safari/537.36" version="24.8.4">
  <diagram name="Page-1" id="B9mhzUUByVWywSNwcbBp">
    <mxGraphModel dx="1754" dy="965" grid="1" gridSize="10" guides="1" tooltips="1" connect="1" arrows="1" fold="1" page="1" pageScale="1" pageWidth="850" pageHeight="1100" math="0" shadow="0">
      <root>
        <mxCell id="0" />
        <mxCell id="1" parent="0" />
        <mxCell id="zrhM48f0oAUaB_4D99f4-5" style="edgeStyle=orthogonalEdgeStyle;rounded=0;orthogonalLoop=1;jettySize=auto;html=1;entryX=0;entryY=0.5;entryDx=0;entryDy=0;" parent="1" source="arjun6Q37aIzBbr_fpmi-2" target="arjun6Q37aIzBbr_fpmi-7" edge="1">
          <mxGeometry relative="1" as="geometry" />
        </mxCell>
        <mxCell id="arjun6Q37aIzBbr_fpmi-2" value="East and West&lt;br&gt;Yellow" style="rounded=1;whiteSpace=wrap;html=1;arcSize=24;fillColor=#fcfcfc;strokeColor=#3e3e37;shadow=0;comic=0;labelBackgroundColor=none;fontFamily=Verdana;fontSize=12;align=center;" parent="1" vertex="1">
          <mxGeometry x="70" y="370" width="120" height="60" as="geometry" />
        </mxCell>
        <mxCell id="zrhM48f0oAUaB_4D99f4-19" style="edgeStyle=orthogonalEdgeStyle;rounded=0;orthogonalLoop=1;jettySize=auto;html=1;entryX=0.25;entryY=0;entryDx=0;entryDy=0;" parent="1" source="arjun6Q37aIzBbr_fpmi-3" target="arjun6Q37aIzBbr_fpmi-4" edge="1">
          <mxGeometry relative="1" as="geometry" />
        </mxCell>
        <mxCell id="arjun6Q37aIzBbr_fpmi-3" value="North and South&lt;br&gt;Red" style="rounded=1;whiteSpace=wrap;html=1;arcSize=24;fillColor=default;shadow=0;comic=0;labelBackgroundColor=none;fontFamily=Verdana;fontSize=12;align=center;fillStyle=auto;gradientColor=none;gradientDirection=east;glass=0;" parent="1" vertex="1">
          <mxGeometry x="240" y="120" width="120" height="60" as="geometry" />
        </mxCell>
        <mxCell id="arjun6Q37aIzBbr_fpmi-4" value="&lt;font color=&quot;#000000&quot;&gt;East and West&amp;nbsp;&amp;nbsp;&lt;br&gt;Green&lt;/font&gt;" style="rounded=1;whiteSpace=wrap;html=1;arcSize=24;fillColor=#f7f7f7;strokeColor=#000f08;shadow=0;comic=0;labelBackgroundColor=none;fontFamily=Verdana;fontSize=12;fontColor=#f4ebeb;align=center;labelBorderColor=none;" parent="1" vertex="1">
          <mxGeometry x="270" y="260" width="120" height="60" as="geometry" />
        </mxCell>
        <mxCell id="zrhM48f0oAUaB_4D99f4-21" style="edgeStyle=orthogonalEdgeStyle;rounded=0;orthogonalLoop=1;jettySize=auto;html=1;entryX=1;entryY=0.5;entryDx=0;entryDy=0;" parent="1" source="arjun6Q37aIzBbr_fpmi-6" target="arjun6Q37aIzBbr_fpmi-19" edge="1">
          <mxGeometry relative="1" as="geometry">
            <Array as="points">
              <mxPoint x="800" y="190" />
            </Array>
          </mxGeometry>
        </mxCell>
        <mxCell id="arjun6Q37aIzBbr_fpmi-6" value="&lt;font color=&quot;#000000&quot;&gt;North and South&lt;br&gt;Green&lt;/font&gt;" style="rounded=1;whiteSpace=wrap;html=1;arcSize=24;fillColor=#ffffff;strokeColor=#0c0d0c;shadow=0;comic=0;labelBackgroundColor=none;fontFamily=Verdana;fontSize=12;fontColor=#f6eeee;align=center;" parent="1" vertex="1">
          <mxGeometry x="700" y="385" width="120" height="60" as="geometry" />
        </mxCell>
        <mxCell id="zrhM48f0oAUaB_4D99f4-3" style="edgeStyle=orthogonalEdgeStyle;rounded=0;orthogonalLoop=1;jettySize=auto;html=1;entryX=0;entryY=0.75;entryDx=0;entryDy=0;" parent="1" source="arjun6Q37aIzBbr_fpmi-7" target="arjun6Q37aIzBbr_fpmi-6" edge="1">
          <mxGeometry relative="1" as="geometry" />
        </mxCell>
        <mxCell id="arjun6Q37aIzBbr_fpmi-7" value="&lt;font color=&quot;#000000&quot;&gt;East and West&lt;br&gt;Red&lt;/font&gt;" style="rounded=1;whiteSpace=wrap;html=1;arcSize=24;fillColor=#ffffff;strokeColor=default;shadow=0;comic=0;labelBackgroundColor=none;fontFamily=Verdana;fontSize=12;fontColor=#fbf4f4;align=center;" parent="1" vertex="1">
          <mxGeometry x="350" y="370" width="120" height="60" as="geometry" />
        </mxCell>
        <mxCell id="arjun6Q37aIzBbr_fpmi-13" value="Timer Expired" style="text;html=1;align=center;verticalAlign=middle;resizable=0;points=[];autosize=1;strokeColor=none;fillColor=none;" parent="1" vertex="1">
          <mxGeometry x="70" y="318" width="100" height="30" as="geometry" />
        </mxCell>
        <mxCell id="arjun6Q37aIzBbr_fpmi-14" value="Timer Expired" style="text;html=1;align=center;verticalAlign=middle;resizable=0;points=[];autosize=1;strokeColor=none;fillColor=none;" parent="1" vertex="1">
          <mxGeometry x="205" y="370" width="100" height="30" as="geometry" />
        </mxCell>
        <mxCell id="arjun6Q37aIzBbr_fpmi-15" value="Timer Expired" style="text;html=1;align=center;verticalAlign=middle;resizable=0;points=[];autosize=1;strokeColor=none;fillColor=none;" parent="1" vertex="1">
          <mxGeometry x="480" y="400" width="100" height="30" as="geometry" />
        </mxCell>
        <mxCell id="arjun6Q37aIzBbr_fpmi-17" value="Timer Expired" style="text;html=1;align=center;verticalAlign=middle;resizable=0;points=[];autosize=1;strokeColor=none;fillColor=none;" parent="1" vertex="1">
          <mxGeometry x="700" y="260" width="100" height="30" as="geometry" />
        </mxCell>
        <mxCell id="arjun6Q37aIzBbr_fpmi-18" value="Timer Expired" style="text;html=1;align=center;verticalAlign=middle;resizable=0;points=[];autosize=1;strokeColor=none;fillColor=none;" parent="1" vertex="1">
          <mxGeometry x="500" y="120" width="100" height="30" as="geometry" />
        </mxCell>
        <mxCell id="zrhM48f0oAUaB_4D99f4-1" style="edgeStyle=orthogonalEdgeStyle;rounded=0;orthogonalLoop=1;jettySize=auto;html=1;entryX=1;entryY=0.25;entryDx=0;entryDy=0;" parent="1" source="arjun6Q37aIzBbr_fpmi-19" target="arjun6Q37aIzBbr_fpmi-3" edge="1">
          <mxGeometry relative="1" as="geometry" />
        </mxCell>
        <mxCell id="arjun6Q37aIzBbr_fpmi-19" value="North and South&lt;br&gt;Yellow" style="rounded=1;whiteSpace=wrap;html=1;arcSize=24;fillColor=#ffffff;strokeColor=#eeff00;shadow=0;comic=0;labelBackgroundColor=none;fontFamily=Verdana;fontSize=12;fontColor=#000000;align=center;" parent="1" vertex="1">
          <mxGeometry x="600" y="160" width="120" height="60" as="geometry" />
        </mxCell>
        <mxCell id="zrhM48f0oAUaB_4D99f4-6" style="edgeStyle=orthogonalEdgeStyle;rounded=0;orthogonalLoop=1;jettySize=auto;html=1;entryX=0.808;entryY=-0.033;entryDx=0;entryDy=0;entryPerimeter=0;" parent="1" source="arjun6Q37aIzBbr_fpmi-4" target="arjun6Q37aIzBbr_fpmi-2" edge="1">
          <mxGeometry relative="1" as="geometry" />
        </mxCell>
        <mxCell id="P8I59d-MkQhCbpSKNnID-1" style="edgeStyle=orthogonalEdgeStyle;rounded=0;orthogonalLoop=1;jettySize=auto;html=1;entryX=0.5;entryY=0;entryDx=0;entryDy=0;" edge="1" parent="1" source="zrhM48f0oAUaB_4D99f4-17" target="arjun6Q37aIzBbr_fpmi-3">
          <mxGeometry relative="1" as="geometry" />
        </mxCell>
        <mxCell id="zrhM48f0oAUaB_4D99f4-17" value="" style="ellipse;html=1;shape=startState;fillColor=#000000;strokeColor=#ff0000;" parent="1" vertex="1">
          <mxGeometry x="285" y="30" width="30" height="30" as="geometry" />
        </mxCell>
      </root>
    </mxGraphModel>
  </diagram>
</mxfile>
